<?xml version="1.0" encoding="UTF-8" standalone="no"?>
<!DOCTYPE svg PUBLIC "-//W3C//DTD SVG 1.1//EN"
 "http://www.w3.org/Graphics/SVG/1.1/DTD/svg11.dtd">
<!-- Generated by graphviz version 2.38.0 (20140413.2041)
 -->
<!-- Title: G Pages: 1 -->
<svg width="348pt" height="186pt"
 viewBox="0.00 0.00 348.00 185.50" xmlns="http://www.w3.org/2000/svg" xmlns:xlink="http://www.w3.org/1999/xlink">
<g id="graph0" class="graph" transform="scale(1 1) rotate(0) translate(4 181.501)">
<title>G</title>
<polygon fill="white" stroke="none" points="-4,4 -4,-181.501 344.001,-181.501 344.001,4 -4,4"/>
<!-- 0_0 -->
<g id="node1" class="node"><title>0_0</title>
<text text-anchor="middle" x="15" y="-137.3" font-family="Times,serif" font-size="14.00">x1</text>
</g>
<!-- 1_0 -->
<g id="node3" class="node"><title>1_0</title>
<ellipse fill="none" stroke="black" cx="96.5007" cy="-147" rx="30.5014" ry="30.5014"/>
<text text-anchor="middle" x="96.5007" y="-143.3" font-family="Times,serif" font-size="14.00">NAND</text>
</g>
<!-- 0_0&#45;&gt;1_0 -->
<g id="edge1" class="edge"><title>0_0&#45;&gt;1_0</title>
<path fill="none" stroke="black" d="M30.2131,-142.073C37.4171,-142.616 46.5615,-143.307 55.709,-143.997"/>
<polygon fill="black" stroke="black" points="55.6996,-147.506 65.9346,-144.769 56.2264,-140.526 55.6996,-147.506"/>
</g>
<!-- 1_1 -->
<g id="node4" class="node"><title>1_1</title>
<ellipse fill="none" stroke="black" cx="96.5007" cy="-29" rx="29" ry="29"/>
<text text-anchor="middle" x="96.5007" y="-25.3" font-family="Times,serif" font-size="14.00">OR</text>
</g>
<!-- 0_0&#45;&gt;1_1 -->
<g id="edge3" class="edge"><title>0_0&#45;&gt;1_1</title>
<path fill="none" stroke="black" d="M29.1279,-122.505C41.0907,-105.652 59.0071,-80.412 73.2112,-60.4013"/>
<polygon fill="black" stroke="black" points="76.1089,-62.3657 79.0432,-52.1852 70.4008,-58.3138 76.1089,-62.3657"/>
</g>
<!-- 0_1 -->
<g id="node2" class="node"><title>0_1</title>
<text text-anchor="middle" x="15" y="-37.3" font-family="Times,serif" font-size="14.00">x2</text>
</g>
<!-- 0_1&#45;&gt;1_0 -->
<g id="edge2" class="edge"><title>0_1&#45;&gt;1_0</title>
<path fill="none" stroke="black" d="M29.848,-59.4638C41.2673,-74.6894 57.7381,-96.6503 71.3251,-114.766"/>
<polygon fill="black" stroke="black" points="68.5363,-116.881 77.3364,-122.781 74.1363,-112.681 68.5363,-116.881"/>
</g>
<!-- 0_1&#45;&gt;1_1 -->
<g id="edge4" class="edge"><title>0_1&#45;&gt;1_1</title>
<path fill="none" stroke="black" d="M30.2131,-38.8546C37.9035,-37.6938 47.8052,-36.1992 57.5613,-34.7267"/>
<polygon fill="black" stroke="black" points="58.2109,-38.1683 67.5765,-33.2149 57.1661,-31.2467 58.2109,-38.1683"/>
</g>
<!-- 2_0 -->
<g id="node5" class="node"><title>2_0</title>
<ellipse fill="none" stroke="black" cx="192.001" cy="-88" rx="29" ry="29"/>
<text text-anchor="middle" x="192.001" y="-84.3" font-family="Times,serif" font-size="14.00">AND</text>
</g>
<!-- 1_0&#45;&gt;2_0 -->
<g id="edge5" class="edge"><title>1_0&#45;&gt;2_0</title>
<path fill="none" stroke="black" d="M123.05,-130.878C133.994,-123.972 146.905,-115.825 158.517,-108.498"/>
<polygon fill="black" stroke="black" points="160.5,-111.385 167.09,-103.089 156.765,-105.465 160.5,-111.385"/>
</g>
<!-- 1_1&#45;&gt;2_0 -->
<g id="edge6" class="edge"><title>1_1&#45;&gt;2_0</title>
<path fill="none" stroke="black" d="M121.579,-44.194C132.813,-51.2824 146.351,-59.8249 158.477,-67.4767"/>
<polygon fill="black" stroke="black" points="156.679,-70.481 167.004,-72.8575 160.415,-64.561 156.679,-70.481"/>
</g>
<!-- 3_0 -->
<g id="node6" class="node"><title>3_0</title>
<text text-anchor="middle" x="298.501" y="-84.3" font-family="Times,serif" font-size="14.00">XOR output</text>
</g>
<!-- 2_0&#45;&gt;3_0 -->
<g id="edge7" class="edge"><title>2_0&#45;&gt;3_0</title>
<path fill="none" stroke="black" d="M221.005,-88C228.914,-88 237.775,-88 246.585,-88"/>
<polygon fill="black" stroke="black" points="246.844,-91.5001 256.844,-88 246.844,-84.5001 246.844,-91.5001"/>
</g>
</g>
</svg>
