<?xml version="1.0" encoding="UTF-8" standalone="no"?>
<!DOCTYPE svg PUBLIC "-//W3C//DTD SVG 1.1//EN"
 "http://www.w3.org/Graphics/SVG/1.1/DTD/svg11.dtd">
<!-- Generated by graphviz version 2.38.0 (20140413.2041)
 -->
<!-- Title: G Pages: 1 -->
<svg width="614pt" height="412pt"
 viewBox="0.00 0.00 614.00 412.00" xmlns="http://www.w3.org/2000/svg" xmlns:xlink="http://www.w3.org/1999/xlink">
<g id="graph0" class="graph" transform="scale(1 1) rotate(0) translate(4 408)">
<title>G</title>
<polygon fill="white" stroke="none" points="-4,4 -4,-408 610,-408 610,4 -4,4"/>
<g id="clust1" class="cluster"><title>cluster_0</title>
<polygon fill="#ff0000" fill-opacity="0.501961" stroke="#ff0000" stroke-opacity="0.501961" points="1,-53 1,-351 104,-351 104,-53 1,-53"/>
<text text-anchor="middle" x="52.5" y="-331" font-family="Times,serif" font-size="20.00">Input layer</text>
</g>
<g id="clust2" class="cluster"><title>cluster_1</title>
<polygon fill="#0000ff" fill-opacity="0.501961" stroke="#0000ff" stroke-opacity="0.501961" points="174,-8 174,-396 420,-396 420,-8 174,-8"/>
<text text-anchor="middle" x="297" y="-376" font-family="Times,serif" font-size="20.00">Hidden layers</text>
</g>
<g id="clust3" class="cluster"><title>cluster_2</title>
<polygon fill="#000000" fill-opacity="0.501961" stroke="#000000" stroke-opacity="0.501961" points="490,-98 490,-306 606,-306 606,-98 490,-98"/>
<text text-anchor="middle" x="548" y="-286" font-family="Times,serif" font-size="20.00">Output layer</text>
</g>
<!-- 0_0 -->
<g id="node1" class="node"><title>0_0</title>
<ellipse fill="none" stroke="black" cx="52" cy="-187" rx="36" ry="36"/>
</g>
<!-- 1_0 -->
<g id="node4" class="node"><title>1_0</title>
<ellipse fill="none" stroke="black" cx="218" cy="-322" rx="36" ry="36"/>
</g>
<!-- 0_0&#45;&gt;1_0 -->
<g id="edge1" class="edge"><title>0_0&#45;&gt;1_0</title>
<path fill="none" stroke="black" d="M80.4499,-209.596C108.324,-232.541 151.588,-268.155 181.93,-293.131"/>
<polygon fill="black" stroke="black" points="179.789,-295.902 189.734,-299.555 184.238,-290.498 179.789,-295.902"/>
</g>
<!-- 1_1 -->
<g id="node5" class="node"><title>1_1</title>
<ellipse fill="none" stroke="black" cx="218" cy="-232" rx="36" ry="36"/>
</g>
<!-- 0_0&#45;&gt;1_1 -->
<g id="edge2" class="edge"><title>0_0&#45;&gt;1_1</title>
<path fill="none" stroke="black" d="M86.9809,-196.324C111.939,-203.172 146.06,-212.535 173.086,-219.95"/>
<polygon fill="black" stroke="black" points="172.493,-223.417 183.063,-222.688 174.345,-216.667 172.493,-223.417"/>
</g>
<!-- 1_2 -->
<g id="node6" class="node"><title>1_2</title>
<ellipse fill="none" stroke="black" cx="218" cy="-142" rx="36" ry="36"/>
</g>
<!-- 0_0&#45;&gt;1_2 -->
<g id="edge3" class="edge"><title>0_0&#45;&gt;1_2</title>
<path fill="none" stroke="black" d="M86.9809,-177.676C111.939,-170.828 146.06,-161.465 173.086,-154.05"/>
<polygon fill="black" stroke="black" points="174.345,-157.333 183.063,-151.312 172.493,-150.583 174.345,-157.333"/>
</g>
<!-- 1_3 -->
<g id="node7" class="node"><title>1_3</title>
<ellipse fill="none" stroke="black" cx="218" cy="-52" rx="36" ry="36"/>
</g>
<!-- 0_0&#45;&gt;1_3 -->
<g id="edge4" class="edge"><title>0_0&#45;&gt;1_3</title>
<path fill="none" stroke="black" d="M80.4499,-164.404C108.324,-141.459 151.588,-105.845 181.93,-80.8689"/>
<polygon fill="black" stroke="black" points="184.238,-83.5023 189.734,-74.4446 179.789,-78.0979 184.238,-83.5023"/>
</g>
<!-- 0_1 -->
<g id="node2" class="node"><title>0_1</title>
<ellipse fill="none" stroke="black" cx="52" cy="-97" rx="36" ry="36"/>
</g>
<!-- 0_1&#45;&gt;1_0 -->
<g id="edge5" class="edge"><title>0_1&#45;&gt;1_0</title>
<path fill="none" stroke="black" d="M74.1044,-125.954C103.688,-166.541 157.497,-240.365 189.975,-284.923"/>
<polygon fill="black" stroke="black" points="187.258,-287.137 195.977,-293.157 192.915,-283.014 187.258,-287.137"/>
</g>
<!-- 0_1&#45;&gt;1_1 -->
<g id="edge6" class="edge"><title>0_1&#45;&gt;1_1</title>
<path fill="none" stroke="black" d="M80.4499,-119.596C108.324,-142.541 151.588,-178.155 181.93,-203.131"/>
<polygon fill="black" stroke="black" points="179.789,-205.902 189.734,-209.555 184.238,-200.498 179.789,-205.902"/>
</g>
<!-- 0_1&#45;&gt;1_2 -->
<g id="edge7" class="edge"><title>0_1&#45;&gt;1_2</title>
<path fill="none" stroke="black" d="M86.9809,-106.324C111.939,-113.172 146.06,-122.535 173.086,-129.95"/>
<polygon fill="black" stroke="black" points="172.493,-133.417 183.063,-132.688 174.345,-126.667 172.493,-133.417"/>
</g>
<!-- 0_1&#45;&gt;1_3 -->
<g id="edge8" class="edge"><title>0_1&#45;&gt;1_3</title>
<path fill="none" stroke="black" d="M86.9809,-87.676C111.939,-80.8277 146.06,-71.4651 173.086,-64.0495"/>
<polygon fill="black" stroke="black" points="174.345,-67.3335 183.063,-61.3121 172.493,-60.583 174.345,-67.3335"/>
</g>
<!-- 0_2 -->
<g id="node3" class="node"><title>0_2</title>
<ellipse fill="none" stroke="black" cx="52" cy="-277" rx="36" ry="36"/>
</g>
<!-- 0_2&#45;&gt;1_0 -->
<g id="edge9" class="edge"><title>0_2&#45;&gt;1_0</title>
<path fill="none" stroke="black" d="M86.9809,-286.324C111.939,-293.172 146.06,-302.535 173.086,-309.95"/>
<polygon fill="black" stroke="black" points="172.493,-313.417 183.063,-312.688 174.345,-306.667 172.493,-313.417"/>
</g>
<!-- 0_2&#45;&gt;1_1 -->
<g id="edge10" class="edge"><title>0_2&#45;&gt;1_1</title>
<path fill="none" stroke="black" d="M86.9809,-267.676C111.939,-260.828 146.06,-251.465 173.086,-244.05"/>
<polygon fill="black" stroke="black" points="174.345,-247.333 183.063,-241.312 172.493,-240.583 174.345,-247.333"/>
</g>
<!-- 0_2&#45;&gt;1_2 -->
<g id="edge11" class="edge"><title>0_2&#45;&gt;1_2</title>
<path fill="none" stroke="black" d="M80.4499,-254.404C108.324,-231.459 151.588,-195.845 181.93,-170.869"/>
<polygon fill="black" stroke="black" points="184.238,-173.502 189.734,-164.445 179.789,-168.098 184.238,-173.502"/>
</g>
<!-- 0_2&#45;&gt;1_3 -->
<g id="edge12" class="edge"><title>0_2&#45;&gt;1_3</title>
<path fill="none" stroke="black" d="M74.1044,-248.046C103.688,-207.459 157.497,-133.635 189.975,-89.0769"/>
<polygon fill="black" stroke="black" points="192.915,-90.9858 195.977,-80.8431 187.258,-86.8626 192.915,-90.9858"/>
</g>
<!-- 2_0 -->
<g id="node8" class="node"><title>2_0</title>
<ellipse fill="none" stroke="black" cx="376" cy="-52" rx="36" ry="36"/>
</g>
<!-- 1_0&#45;&gt;2_0 -->
<g id="edge13" class="edge"><title>1_0&#45;&gt;2_0</title>
<path fill="none" stroke="black" d="M236.895,-291.028C265.266,-241.925 320.554,-146.233 351.886,-92.0042"/>
<polygon fill="black" stroke="black" points="355.102,-93.4356 357.074,-83.0259 349.041,-89.9336 355.102,-93.4356"/>
</g>
<!-- 2_1 -->
<g id="node9" class="node"><title>2_1</title>
<ellipse fill="none" stroke="black" cx="376" cy="-142" rx="36" ry="36"/>
</g>
<!-- 1_0&#45;&gt;2_1 -->
<g id="edge14" class="edge"><title>1_0&#45;&gt;2_1</title>
<path fill="none" stroke="black" d="M242.355,-295.052C269.66,-263.546 314.92,-211.324 344.854,-176.784"/>
<polygon fill="black" stroke="black" points="347.836,-178.687 351.741,-168.838 342.546,-174.102 347.836,-178.687"/>
</g>
<!-- 2_2 -->
<g id="node10" class="node"><title>2_2</title>
<ellipse fill="none" stroke="black" cx="376" cy="-232" rx="36" ry="36"/>
</g>
<!-- 1_0&#45;&gt;2_2 -->
<g id="edge15" class="edge"><title>1_0&#45;&gt;2_2</title>
<path fill="none" stroke="black" d="M249.449,-304.433C274.065,-290.232 308.899,-270.135 335.633,-254.712"/>
<polygon fill="black" stroke="black" points="337.449,-257.705 344.362,-249.676 333.951,-251.641 337.449,-257.705"/>
</g>
<!-- 2_3 -->
<g id="node11" class="node"><title>2_3</title>
<ellipse fill="none" stroke="black" cx="376" cy="-322" rx="36" ry="36"/>
</g>
<!-- 1_0&#45;&gt;2_3 -->
<g id="edge16" class="edge"><title>1_0&#45;&gt;2_3</title>
<path fill="none" stroke="black" d="M254.009,-322C276.311,-322 305.432,-322 329.515,-322"/>
<polygon fill="black" stroke="black" points="329.838,-325.5 339.838,-322 329.838,-318.5 329.838,-325.5"/>
</g>
<!-- 1_1&#45;&gt;2_0 -->
<g id="edge17" class="edge"><title>1_1&#45;&gt;2_0</title>
<path fill="none" stroke="black" d="M242.355,-205.052C269.66,-173.546 314.92,-121.324 344.854,-86.7839"/>
<polygon fill="black" stroke="black" points="347.836,-88.6868 351.741,-78.8377 342.546,-84.1023 347.836,-88.6868"/>
</g>
<!-- 1_1&#45;&gt;2_1 -->
<g id="edge18" class="edge"><title>1_1&#45;&gt;2_1</title>
<path fill="none" stroke="black" d="M249.449,-214.433C274.065,-200.232 308.899,-180.135 335.633,-164.712"/>
<polygon fill="black" stroke="black" points="337.449,-167.705 344.362,-159.676 333.951,-161.641 337.449,-167.705"/>
</g>
<!-- 1_1&#45;&gt;2_2 -->
<g id="edge19" class="edge"><title>1_1&#45;&gt;2_2</title>
<path fill="none" stroke="black" d="M254.009,-232C276.311,-232 305.432,-232 329.515,-232"/>
<polygon fill="black" stroke="black" points="329.838,-235.5 339.838,-232 329.838,-228.5 329.838,-235.5"/>
</g>
<!-- 1_1&#45;&gt;2_3 -->
<g id="edge20" class="edge"><title>1_1&#45;&gt;2_3</title>
<path fill="none" stroke="black" d="M249.449,-249.567C274.065,-263.768 308.899,-283.865 335.633,-299.288"/>
<polygon fill="black" stroke="black" points="333.951,-302.359 344.362,-304.324 337.449,-296.295 333.951,-302.359"/>
</g>
<!-- 1_2&#45;&gt;2_0 -->
<g id="edge21" class="edge"><title>1_2&#45;&gt;2_0</title>
<path fill="none" stroke="black" d="M249.449,-124.433C274.065,-110.232 308.899,-90.1353 335.633,-74.7119"/>
<polygon fill="black" stroke="black" points="337.449,-77.7047 344.362,-69.6758 333.951,-71.6414 337.449,-77.7047"/>
</g>
<!-- 1_2&#45;&gt;2_1 -->
<g id="edge22" class="edge"><title>1_2&#45;&gt;2_1</title>
<path fill="none" stroke="black" d="M254.009,-142C276.311,-142 305.432,-142 329.515,-142"/>
<polygon fill="black" stroke="black" points="329.838,-145.5 339.838,-142 329.838,-138.5 329.838,-145.5"/>
</g>
<!-- 1_2&#45;&gt;2_2 -->
<g id="edge23" class="edge"><title>1_2&#45;&gt;2_2</title>
<path fill="none" stroke="black" d="M249.449,-159.567C274.065,-173.768 308.899,-193.865 335.633,-209.288"/>
<polygon fill="black" stroke="black" points="333.951,-212.359 344.362,-214.324 337.449,-206.295 333.951,-212.359"/>
</g>
<!-- 1_2&#45;&gt;2_3 -->
<g id="edge24" class="edge"><title>1_2&#45;&gt;2_3</title>
<path fill="none" stroke="black" d="M242.355,-168.948C269.66,-200.454 314.92,-252.676 344.854,-287.216"/>
<polygon fill="black" stroke="black" points="342.546,-289.898 351.741,-295.162 347.836,-285.313 342.546,-289.898"/>
</g>
<!-- 1_3&#45;&gt;2_0 -->
<g id="edge25" class="edge"><title>1_3&#45;&gt;2_0</title>
<path fill="none" stroke="black" d="M254.009,-52C276.311,-52 305.432,-52 329.515,-52"/>
<polygon fill="black" stroke="black" points="329.838,-55.5001 339.838,-52 329.838,-48.5001 329.838,-55.5001"/>
</g>
<!-- 1_3&#45;&gt;2_1 -->
<g id="edge26" class="edge"><title>1_3&#45;&gt;2_1</title>
<path fill="none" stroke="black" d="M249.449,-69.5666C274.065,-83.7682 308.899,-103.865 335.633,-119.288"/>
<polygon fill="black" stroke="black" points="333.951,-122.359 344.362,-124.324 337.449,-116.295 333.951,-122.359"/>
</g>
<!-- 1_3&#45;&gt;2_2 -->
<g id="edge27" class="edge"><title>1_3&#45;&gt;2_2</title>
<path fill="none" stroke="black" d="M242.355,-78.9478C269.66,-110.454 314.92,-162.676 344.854,-197.216"/>
<polygon fill="black" stroke="black" points="342.546,-199.898 351.741,-205.162 347.836,-195.313 342.546,-199.898"/>
</g>
<!-- 1_3&#45;&gt;2_3 -->
<g id="edge28" class="edge"><title>1_3&#45;&gt;2_3</title>
<path fill="none" stroke="black" d="M236.895,-82.9724C265.266,-132.075 320.554,-227.767 351.886,-281.996"/>
<polygon fill="black" stroke="black" points="349.041,-284.066 357.074,-290.974 355.102,-280.564 349.041,-284.066"/>
</g>
<!-- 3_0 -->
<g id="node12" class="node"><title>3_0</title>
<ellipse fill="none" stroke="black" cx="548" cy="-232" rx="36" ry="36"/>
</g>
<!-- 2_0&#45;&gt;3_0 -->
<g id="edge29" class="edge"><title>2_0&#45;&gt;3_0</title>
<path fill="none" stroke="black" d="M401.357,-77.7896C431.402,-109.602 482.538,-163.747 515.531,-198.68"/>
<polygon fill="black" stroke="black" points="513.278,-201.391 522.688,-206.258 518.367,-196.585 513.278,-201.391"/>
</g>
<!-- 3_1 -->
<g id="node13" class="node"><title>3_1</title>
<ellipse fill="none" stroke="black" cx="548" cy="-142" rx="36" ry="36"/>
</g>
<!-- 2_0&#45;&gt;3_1 -->
<g id="edge30" class="edge"><title>2_0&#45;&gt;3_1</title>
<path fill="none" stroke="black" d="M408.181,-68.5074C435.892,-83.1779 476.567,-104.712 506.732,-120.681"/>
<polygon fill="black" stroke="black" points="505.254,-123.859 515.73,-125.445 508.529,-117.673 505.254,-123.859"/>
</g>
<!-- 2_1&#45;&gt;3_0 -->
<g id="edge31" class="edge"><title>2_1&#45;&gt;3_0</title>
<path fill="none" stroke="black" d="M408.181,-158.507C435.892,-173.178 476.567,-194.712 506.732,-210.681"/>
<polygon fill="black" stroke="black" points="505.254,-213.859 515.73,-215.445 508.529,-207.673 505.254,-213.859"/>
</g>
<!-- 2_1&#45;&gt;3_1 -->
<g id="edge32" class="edge"><title>2_1&#45;&gt;3_1</title>
<path fill="none" stroke="black" d="M412.224,-142C438.095,-142 473.465,-142 501.479,-142"/>
<polygon fill="black" stroke="black" points="501.821,-145.5 511.821,-142 501.821,-138.5 501.821,-145.5"/>
</g>
<!-- 2_2&#45;&gt;3_0 -->
<g id="edge33" class="edge"><title>2_2&#45;&gt;3_0</title>
<path fill="none" stroke="black" d="M412.224,-232C438.095,-232 473.465,-232 501.479,-232"/>
<polygon fill="black" stroke="black" points="501.821,-235.5 511.821,-232 501.821,-228.5 501.821,-235.5"/>
</g>
<!-- 2_2&#45;&gt;3_1 -->
<g id="edge34" class="edge"><title>2_2&#45;&gt;3_1</title>
<path fill="none" stroke="black" d="M408.181,-215.493C435.892,-200.822 476.567,-179.288 506.732,-163.319"/>
<polygon fill="black" stroke="black" points="508.529,-166.327 515.73,-158.555 505.254,-160.141 508.529,-166.327"/>
</g>
<!-- 2_3&#45;&gt;3_0 -->
<g id="edge35" class="edge"><title>2_3&#45;&gt;3_0</title>
<path fill="none" stroke="black" d="M408.181,-305.493C435.892,-290.822 476.567,-269.288 506.732,-253.319"/>
<polygon fill="black" stroke="black" points="508.529,-256.327 515.73,-248.555 505.254,-250.141 508.529,-256.327"/>
</g>
<!-- 2_3&#45;&gt;3_1 -->
<g id="edge36" class="edge"><title>2_3&#45;&gt;3_1</title>
<path fill="none" stroke="black" d="M401.357,-296.21C431.402,-264.398 482.538,-210.253 515.531,-175.32"/>
<polygon fill="black" stroke="black" points="518.367,-177.415 522.688,-167.742 513.278,-172.609 518.367,-177.415"/>
</g>
</g>
</svg>
