<?xml version="1.0" encoding="UTF-8" standalone="no"?>
<!DOCTYPE svg PUBLIC "-//W3C//DTD SVG 1.1//EN"
 "http://www.w3.org/Graphics/SVG/1.1/DTD/svg11.dtd">
<!-- Generated by graphviz version 2.38.0 (20140413.2041)
 -->
<!-- Title: G Pages: 1 -->
<svg width="357pt" height="260pt"
 viewBox="0.00 0.00 357.09 260.00" xmlns="http://www.w3.org/2000/svg" xmlns:xlink="http://www.w3.org/1999/xlink">
<g id="graph0" class="graph" transform="scale(1 1) rotate(0) translate(4 256)">
<title>G</title>
<polygon fill="white" stroke="none" points="-4,4 -4,-256 353.092,-256 353.092,4 -4,4"/>
<!-- 0_0 -->
<g id="node1" class="node"><title>0_0</title>
<text text-anchor="middle" x="15" y="-230.3" font-family="Times,serif" font-size="14.00">x1</text>
</g>
<!-- 1_0 -->
<g id="node4" class="node"><title>1_0</title>
<ellipse fill="none" stroke="black" cx="172.046" cy="-126" rx="39.0917" ry="39.0917"/>
<text text-anchor="middle" x="172.046" y="-122.3" font-family="Times,serif" font-size="14.00">perceptron</text>
</g>
<!-- 0_0&#45;&gt;1_0 -->
<g id="edge1" class="edge"><title>0_0&#45;&gt;1_0</title>
<path fill="none" stroke="black" d="M30.0327,-224.225C52.614,-208.496 97.8376,-176.995 131.006,-153.891"/>
<polygon fill="black" stroke="black" points="133.379,-156.503 139.584,-147.915 129.378,-150.759 133.379,-156.503"/>
<text text-anchor="middle" x="81.5" y="-195.8" font-family="Times,serif" font-size="14.00">w1</text>
</g>
<!-- 0_1 -->
<g id="node2" class="node"><title>0_1</title>
<text text-anchor="middle" x="15" y="-122.3" font-family="Times,serif" font-size="14.00">x2</text>
</g>
<!-- 0_1&#45;&gt;1_0 -->
<g id="edge2" class="edge"><title>0_1&#45;&gt;1_0</title>
<path fill="none" stroke="black" d="M30.0327,-126C50.8171,-126 90.7837,-126 122.876,-126"/>
<polygon fill="black" stroke="black" points="122.985,-129.5 132.985,-126 122.985,-122.5 122.985,-129.5"/>
<text text-anchor="middle" x="81.5" y="-129.8" font-family="Times,serif" font-size="14.00">w2</text>
</g>
<!-- 0_2 -->
<g id="node3" class="node"><title>0_2</title>
<text text-anchor="middle" x="15" y="-14.3" font-family="Times,serif" font-size="14.00">x3</text>
</g>
<!-- 0_2&#45;&gt;1_0 -->
<g id="edge3" class="edge"><title>0_2&#45;&gt;1_0</title>
<path fill="none" stroke="black" d="M30.0327,-27.7748C52.614,-43.5041 97.8376,-75.0055 131.006,-98.1093"/>
<polygon fill="black" stroke="black" points="129.378,-101.241 139.584,-104.085 133.379,-95.4969 129.378,-101.241"/>
<text text-anchor="middle" x="81.5" y="-71.8" font-family="Times,serif" font-size="14.00">w3</text>
</g>
<!-- 2_0 -->
<g id="node5" class="node"><title>2_0</title>
<text text-anchor="middle" x="323.592" y="-122.3" font-family="Times,serif" font-size="14.00">output</text>
</g>
<!-- 1_0&#45;&gt;2_0 -->
<g id="edge4" class="edge"><title>1_0&#45;&gt;2_0</title>
<path fill="none" stroke="black" d="M211.169,-126C234.627,-126 264.478,-126 287.377,-126"/>
<polygon fill="black" stroke="black" points="287.681,-129.5 297.681,-126 287.681,-122.5 287.681,-129.5"/>
</g>
</g>
</svg>
